<svg version="1" xmlns="http://www.w3.org/2000/svg" width="266.667" height="266.667" viewBox="0 0 200.000000 200.000000"><path d="M56.6 13.1c-3.3 3.9-3.3 6.9 0 10.8 2 2.5 3.4 3.1 6.4 3.1 3 0 4.4-.6 6.4-3.1 3.3-3.9 3.3-6.9 0-10.8-2-2.5-3.4-3.1-6.4-3.1-3 0-4.4.6-6.4 3.1zM80 12.5c-3.4 3.7-3.3 9 .4 12.1 2.8 2.5 7.4 3.1 10.5 1.4 2.5-1.3 4.5-6.4 3.7-9.5-1.7-6.6-10-8.9-14.6-4zM108.5 12.5c-5.4 5.3-1.6 14.5 6 14.5 2.5 0 4.4-.8 6-2.5 1.7-1.6 2.5-3.5 2.5-6s-.8-4.4-2.5-6c-1.6-1.7-3.5-2.5-6-2.5s-4.4.8-6 2.5zM139.5 12.5c-1.7 1.6-2.5 3.5-2.5 6s.8 4.4 2.5 6c1.6 1.7 3.5 2.5 6 2.5s4.4-.8 6-2.5c1.7-1.6 2.5-3.5 2.5-6s-.8-4.4-2.5-6c-1.6-1.7-3.5-2.5-6-2.5s-4.4.8-6 2.5zM168.9 11c-2.3 1.4-4.2 6.5-3.5 9.5 1.6 6.5 10.1 8.8 14.6 4 5.2-5.5 1.5-14.5-5.9-14.5-2 0-4.3.5-5.2 1zM57.7 40c-7.7 6-.6 18.7 8.3 15 3.9-1.6 6.3-6.1 5.5-10.1-.8-3.6-4.9-6.9-8.5-6.9-1.5 0-3.9.9-5.3 2zM82.2 39c-1.3.6-2.9 2.6-3.8 4.5-1.2 3-1.2 3.9 0 6.9 1.9 4.6 7.1 6.4 11.5 4.1 5.9-3 6.8-8.9 2.2-13.6-3-3-5.8-3.5-9.9-1.9zM109.1 40.6c-3.9 3.3-4.2 8-.7 12 4.8 5.7 14.6 2.2 14.6-5.2 0-4.6-.9-6.3-4.1-7.9-4-2.1-6.3-1.9-9.8 1.1zM141.5 39.2c-5.1 2.9-6 8.9-2.1 13.4 5 5.9 14.6 2 14.6-5.9-.1-6.6-6.9-10.7-12.5-7.5zM167.9 40.9c-4.8 4.8-3.4 11.4 2.9 14 7.2 3 14.3-4.9 10.7-11.9-2.9-5.6-9.1-6.5-13.6-2.1zM57.9 68.3c-6.5 5-3 15.7 5.1 15.7s11.6-10.7 5.1-15.7c-2.1-1.6-8.1-1.6-10.2 0zM168 69c-6.2 6.2-1.1 16.2 7.5 14.6 6.5-1.3 9-9.3 4.5-14.1-3-3.2-9.1-3.4-12-.5zM57.4 97.4c-5.9 5-2.2 14.6 5.6 14.6s11.5-9.6 5.6-14.6c-1.5-1.3-4-2.4-5.6-2.4-1.6 0-4.1 1.1-5.6 2.4zM167.9 97.9c-3.6 3.6-3.7 7-.3 11 5.2 6.2 14.9 2.5 14.7-5.5-.2-7.8-8.8-11.1-14.4-5.5zM59.2 124c-1.2.5-3 2.5-3.9 4.5-1.5 3.2-1.5 3.8-.1 6.8 3.4 7 12.2 7 15.6 0 1.4-3 1.4-3.6-.1-6.8-2.3-4.8-6.5-6.4-11.5-4.5zM170.3 124c-6.4 2.6-6.7 11.7-.6 15.3 2.8 1.6 3.8 1.7 6.9.7 7-2.3 7.9-12.2 1.3-15.5-3.2-1.7-4.4-1.8-7.6-.5zM27.2 158.1c-6 3-8.6 7-9 14.4-.3 5 0 6.5 2 9.4 3.5 5.1 7.1 7.3 12.7 7.9 6.2.6 10.1-.9 14.1-5.4 7.8-9 5.3-21.7-5.4-26.5-5.4-2.4-9.1-2.4-14.4.2zM138 158.2c-5.1 2.7-7.8 6-9 11.1-2.1 9.7 4.6 19.3 14.3 20.4 6 .7 11-1.1 14.6-5.2 5.4-6.2 6-15.1 1.4-21.4-2.4-3.3-9.8-7.1-13.8-7.1-1.7 0-5.1 1-7.5 2.2z"/></svg>